<?xml version="1.0" encoding="UTF-8" standalone="no"?>
<svg
   xmlns:dc="http://purl.org/dc/elements/1.1/"
   xmlns:cc="http://creativecommons.org/ns#"
   xmlns:rdf="http://www.w3.org/1999/02/22-rdf-syntax-ns#"
   xmlns:svg="http://www.w3.org/2000/svg"
   xmlns="http://www.w3.org/2000/svg"
   xmlns:sodipodi="http://sodipodi.sourceforge.net/DTD/sodipodi-0.dtd"
   xmlns:inkscape="http://www.inkscape.org/namespaces/inkscape"
   viewBox="0 0 900 600"
   height="600"
   width="900"
   xml:space="preserve"
   version="1.1"
   id="svg17724"
   sodipodi:docname="Ortsschild_2020-2021.svg"
   inkscape:version="1.0.1 (3bc2e813f5, 2020-09-07)"
   inkscape:export-filename="C:\Users\ChristianPrior\WBI-Academy\biz\assets\IT-Sec\images\Ortsschild_2020-2021.png"
   inkscape:export-xdpi="96"
   inkscape:export-ydpi="96"><sodipodi:namedview
     pagecolor="#ffffff"
     bordercolor="#666666"
     borderopacity="1"
     objecttolerance="10"
     gridtolerance="10"
     guidetolerance="10"
     inkscape:pageopacity="0"
     inkscape:pageshadow="2"
     inkscape:window-width="1920"
     inkscape:window-height="1017"
     id="namedview29"
     showgrid="false"
     inkscape:zoom="0.61555556"
     inkscape:cx="476.045"
     inkscape:cy="279.37263"
     inkscape:window-x="-8"
     inkscape:window-y="-8"
     inkscape:window-maximized="1"
     inkscape:current-layer="svg17724" /><metadata
     id="metadata17730"><rdf:RDF><cc:Work
         rdf:about=""><dc:format>image/svg+xml</dc:format><dc:type
           rdf:resource="http://purl.org/dc/dcmitype/StillImage" /><dc:title></dc:title></cc:Work></rdf:RDF></metadata><defs
     id="defs17728" /><path
     id="path17736"
     style="fill:#f0c900;fill-opacity:1;fill-rule:evenodd;stroke:none;stroke-width:1.25"
     d="M 37.5,0 C 37.5,0 0.02875,-0.01 0,37.5 v 525 c 0,0 -0.1025,37.5 37.5,37.5 h 825 c 37.6025,0 37.5,-37.5 37.5,-37.5 V 37.5 C 899.97125,-0.01 862.5,0 862.5,0 Z" /><path
     id="path17738"
     style="fill:#c1121c;fill-opacity:1;fill-rule:evenodd;stroke:none;stroke-width:1.25"
     d="M 18.71125,548.93125 772.3,303.06625 h 111.89375 l -1.5175,39.58 L 158.0125,579.38 35.45875,580.14125 18.71125,567.2025 Z" /><g
     aria-label="2020"
     id="text856-6"
     style="font-style:normal;font-weight:normal;font-size:40px;line-height:1.25;font-family:sans-serif;fill:#000000;fill-opacity:1;stroke:none"><path
       d="m 208.30046,533.79185 v -25.01039 l 72.73428,-90.98165 q 4.21094,-5.35937 5.48698,-9.82551 1.27604,-4.46614 1.27604,-8.67707 0,-9.69791 -6.89062,-17.99217 -6.89062,-8.42186 -18.75779,-8.42186 -10.84634,0 -18.63018,7.27342 -7.65624,7.14583 -8.54947,19.65102 h -26.66924 q 0.1276,-22.58591 15.44009,-38.02599 15.31248,-15.56769 36.36714,-15.56769 23.22393,0 38.66401,15.69529 15.56769,15.56769 15.56769,37.64318 0,18.8854 -11.10155,32.66663 l -59.84628,75.03116 h 70.94783 v 26.54163 z"
       style="font-style:normal;font-variant:normal;font-weight:normal;font-stretch:normal;font-size:261.333px;font-family:'DIN 1451 Mittelschrift';-inkscape-font-specification:'DIN 1451 Mittelschrift, Normal';font-variant-ligatures:normal;font-variant-caps:normal;font-variant-numeric:normal;font-variant-east-asian:normal"
       id="path930" /><path
       d="m 414.25333,480.32577 v -78.98688 q 0,-13.39842 -7.27343,-20.92706 -7.14583,-7.52863 -18.88539,-7.52863 -11.86718,0 -19.013,7.52863 -7.14583,7.52864 -7.14583,20.92706 v 78.98688 q 0,13.52603 7.14583,21.05466 7.14582,7.40103 19.013,7.40103 11.73956,0 18.88539,-7.40103 7.27343,-7.52863 7.27343,-21.05466 z m -78.98688,1.53125 v -82.04938 q 0,-25.6484 16.0781,-39.55724 16.07811,-14.03644 36.74996,-14.03644 20.54424,0 36.62235,14.03644 16.2057,13.90884 16.2057,39.55724 v 82.04938 q 0,25.6484 -16.2057,39.55724 -16.07811,13.90884 -36.62235,13.90884 -20.67185,0 -36.74996,-13.90884 -16.0781,-13.90884 -16.0781,-39.55724 z"
       style="font-style:normal;font-variant:normal;font-weight:normal;font-stretch:normal;font-size:261.333px;font-family:'DIN 1451 Mittelschrift';-inkscape-font-specification:'DIN 1451 Mittelschrift, Normal';font-variant-ligatures:normal;font-variant-caps:normal;font-variant-numeric:normal;font-variant-east-asian:normal"
       id="path932" /><path
       d="m 459.16994,533.79185 v -25.01039 l 72.73428,-90.98165 q 4.21093,-5.35937 5.48697,-9.82551 1.27604,-4.46614 1.27604,-8.67707 0,-9.69791 -6.89061,-17.99217 -6.89062,-8.42186 -18.75779,-8.42186 -10.84634,0 -18.63019,7.27342 -7.65624,7.14583 -8.54947,19.65102 h -26.66923 q 0.1276,-22.58591 15.44008,-38.02599 15.31248,-15.56769 36.36714,-15.56769 23.22393,0 38.66402,15.69529 15.56769,15.56769 15.56769,37.64318 0,18.8854 -11.10155,32.66663 l -59.84628,75.03116 h 70.94783 v 26.54163 z"
       style="font-style:normal;font-variant:normal;font-weight:normal;font-stretch:normal;font-size:261.333px;font-family:'DIN 1451 Mittelschrift';-inkscape-font-specification:'DIN 1451 Mittelschrift, Normal';font-variant-ligatures:normal;font-variant-caps:normal;font-variant-numeric:normal;font-variant-east-asian:normal"
       id="path934" /><path
       d="m 665.12279,480.32577 v -78.98688 q 0,-13.39842 -7.27343,-20.92706 -7.14582,-7.52863 -18.88539,-7.52863 -11.86718,0 -19.013,7.52863 -7.14582,7.52864 -7.14582,20.92706 v 78.98688 q 0,13.52603 7.14582,21.05466 7.14582,7.40103 19.013,7.40103 11.73957,0 18.88539,-7.40103 7.27343,-7.52863 7.27343,-21.05466 z m -78.98688,1.53125 v -82.04938 q 0,-25.6484 16.0781,-39.55724 16.07811,-14.03644 36.74996,-14.03644 20.54424,0 36.62235,14.03644 16.20571,13.90884 16.20571,39.55724 v 82.04938 q 0,25.6484 -16.20571,39.55724 -16.07811,13.90884 -36.62235,13.90884 -20.67185,0 -36.74996,-13.90884 -16.0781,-13.90884 -16.0781,-39.55724 z"
       style="font-style:normal;font-variant:normal;font-weight:normal;font-stretch:normal;font-size:261.333px;font-family:'DIN 1451 Mittelschrift';-inkscape-font-specification:'DIN 1451 Mittelschrift, Normal';font-variant-ligatures:normal;font-variant-caps:normal;font-variant-numeric:normal;font-variant-east-asian:normal"
       id="path936" /></g><path
     id="path17744"
     style="fill:#000000;fill-opacity:1;fill-rule:evenodd;stroke:none;stroke-width:1.25"
     d="m 715.1125,103.775 0.24875,32.19125 L 757.6175,94.17 v 149.4625 l 26.03,0.24875 V 94.41875 l 42.275,41.7975 0.23,-32.1925 L 770.68875,49.375 Z" /><path
     id="path17746"
     style="fill:#000000;fill-opacity:1;fill-rule:evenodd;stroke:none;stroke-width:1.25"
     d="m 20.205,292.5 v 15 h 860.99125 v -15 z" /><path
     id="path17748"
     style="fill:#000000;fill-opacity:1;fill-rule:evenodd;stroke:none;stroke-width:1.25"
     d="m 37.5,10 c 0,0 -27.485,0.04875 -27.5,27.5 v 525 c 0,0 -0.01,27.525 27.5,27.5 h 825.0925 c 27.51,0.025 27.5,-27.5 27.5,-27.5 v -525 c -0.0137,-27.45125 -27.5,-27.5 -27.5,-27.5 z m 0,15 h 825.0925 c 0,0 12.4275,0.005 12.45125,12.5 1.11375,172.065 0.22,525 0.22,525 C 875.22,574.6625 862.5925,575 862.5925,575 H 37.5 c 0,0 -12.6275,-0.3375 -12.67625,-12.5 0,0 -0.88875,-352.935 0.225,-525 C 25.06875,25.005 37.5,25 37.5,25 Z" /><g
     aria-label="2021"
     id="text856"
     style="font-style:normal;font-weight:normal;font-size:40px;line-height:1.25;font-family:sans-serif;fill:#000000;fill-opacity:1;stroke:none"><path
       d="m 152.9742,242.35 v -25.01038 l 72.73428,-90.98166 q 4.21093,-5.35937 5.48697,-9.82551 1.27604,-4.46614 1.27604,-8.67707 0,-9.697908 -6.89061,-17.992168 -6.89062,-8.421865 -18.75779,-8.421865 -10.84634,0 -18.63019,7.273429 -7.65624,7.145824 -8.54947,19.651014 H 152.9742 q 0.1276,-22.585907 15.44008,-38.025992 15.31248,-15.567688 36.36714,-15.567688 23.22393,0 38.66402,15.695292 15.56769,15.567689 15.56769,37.643178 0,18.8854 -11.10155,32.66663 l -59.84628,75.03116 h 70.94783 V 242.35 Z"
       style="font-style:normal;font-variant:normal;font-weight:normal;font-stretch:normal;font-size:261.333px;font-family:'DIN 1451 Mittelschrift';-inkscape-font-specification:'DIN 1451 Mittelschrift, Normal';font-variant-ligatures:normal;font-variant-caps:normal;font-variant-numeric:normal;font-variant-east-asian:normal"
       id="path921" /><path
       d="m 358.92706,188.88392 v -78.98688 q 0,-13.39842 -7.27342,-20.927056 -7.14583,-7.528637 -18.8854,-7.528637 -11.86717,0 -19.01299,7.528637 -7.14583,7.528636 -7.14583,20.927056 v 78.98688 q 0,13.52603 7.14583,21.05466 7.14582,7.40104 19.01299,7.40104 11.73957,0 18.8854,-7.40104 7.27342,-7.52863 7.27342,-21.05466 z m -78.98688,1.53125 v -82.04938 q 0,-25.648403 16.07811,-39.55724 16.0781,-14.03644 36.74995,-14.03644 20.54425,0 36.62235,14.03644 16.20571,13.908837 16.20571,39.55724 v 82.04938 q 0,25.64841 -16.20571,39.55724 -16.0781,13.90884 -36.62235,13.90884 -20.67185,0 -36.74995,-13.90884 -16.07811,-13.90883 -16.07811,-39.55724 z"
       style="font-style:normal;font-variant:normal;font-weight:normal;font-stretch:normal;font-size:261.333px;font-family:'DIN 1451 Mittelschrift';-inkscape-font-specification:'DIN 1451 Mittelschrift, Normal';font-variant-ligatures:normal;font-variant-caps:normal;font-variant-numeric:normal;font-variant-east-asian:normal"
       id="path923" /><path
       d="m 403.84367,242.35 v -25.01038 l 72.73429,-90.98166 q 4.21093,-5.35937 5.48697,-9.82551 1.27604,-4.46614 1.27604,-8.67707 0,-9.697908 -6.89062,-17.992168 -6.89061,-8.421865 -18.75779,-8.421865 -10.84634,0 -18.63018,7.273429 -7.65624,7.145824 -8.54947,19.651014 h -26.66924 q 0.12761,-22.585907 15.44009,-38.025992 15.31248,-15.567688 36.36714,-15.567688 23.22393,0 38.66401,15.695292 15.56769,15.567689 15.56769,37.643178 0,18.8854 -11.10155,32.66663 l -59.84627,75.03116 H 509.8826 V 242.35 Z"
       style="font-style:normal;font-variant:normal;font-weight:normal;font-stretch:normal;font-size:261.333px;font-family:'DIN 1451 Mittelschrift';-inkscape-font-specification:'DIN 1451 Mittelschrift, Normal';font-variant-ligatures:normal;font-variant-caps:normal;font-variant-numeric:normal;font-variant-east-asian:normal"
       id="path925" /><path
       d="M 564.62471,242.73281 V 84.631447 L 538.08307,104.02726 V 75.699167 l 26.54164,-19.268205 h 26.79684 V 242.73281 Z"
       style="font-style:normal;font-variant:normal;font-weight:normal;font-stretch:normal;font-size:261.333px;font-family:'DIN 1451 Mittelschrift';-inkscape-font-specification:'DIN 1451 Mittelschrift, Normal';font-variant-ligatures:normal;font-variant-caps:normal;font-variant-numeric:normal;font-variant-east-asian:normal"
       id="path927" /></g></svg>
